<svg xmlns="http://www.w3.org/2000/svg" width="900" height="1200" viewBox="0 0 900 1200">
  <defs>
    <linearGradient id="g" x1="0" y1="0" x2="1" y2="1">
      <stop offset="0" stop-color="#0b0d10"/>
      <stop offset="1" stop-color="#0b1514"/>
    </linearGradient>
    <radialGradient id="r" cx="70%" cy="22%" r="70%">
      <stop offset="0" stop-color="#22c55e" stop-opacity="0.18"/>
      <stop offset="1" stop-color="#000" stop-opacity="0"/>
    </radialGradient>
  </defs>
  <rect width="900" height="1200" fill="url(#g)"/>
  <rect width="900" height="1200" fill="url(#r)"/>

  <!-- island silhouette -->
  <g opacity="0.92">
    <path d="M150 900 C220 760, 310 740, 380 800 C430 845, 470 830, 520 785 C610 705, 700 720, 770 820 C810 880, 780 980, 670 1020 C540 1068, 390 1060, 260 1010 C190 982, 150 950, 150 900 Z" fill="#11151a" stroke="rgba(255,255,255,0.10)" stroke-width="2"/>
    <path d="M170 920 C260 860, 320 850, 380 890" stroke="rgba(34,197,94,0.22)" stroke-width="10" fill="none"/>
  </g>

  <g font-family="Inter, system-ui" fill="#e7eaf0">
    <text x="70" y="140" font-size="38" font-weight="850">DEATH ISLAND</text>
    <text x="70" y="190" font-size="18" fill="#a8b0bf">2023 • Fan cover art</text>
  </g>

  <text x="70" y="1120" font-family="Inter, system-ui" font-size="14" fill="#a8b0bf">Outbreak returns • team-up mission</text>
</svg>
